<svg xmlns="http://www.w3.org/2000/svg" width="236" height="187" viewBox="0 0 236 187">
  <metadata><?xpacket begin="﻿" id="W5M0MpCehiHzreSzNTczkc9d"?>
<x:xmpmeta xmlns:x="adobe:ns:meta/" x:xmptk="Adobe XMP Core 5.6-c140 79.160451, 2017/05/06-01:08:21        ">
   <rdf:RDF xmlns:rdf="http://www.w3.org/1999/02/22-rdf-syntax-ns#">
      <rdf:Description rdf:about=""/>
   </rdf:RDF>
</x:xmpmeta>
                                                                                                    
                                                                                                    
                                                                                                    
                                                                                                    
                                                                                                    
                                                                                                    
                                                                                                    
                                                                                                    
                                                                                                    
                                                                                                    
                                                                                                    
                                                                                                    
                                                                                                    
                                                                                                    
                                                                                                    
                                                                                                    
                                                                                                    
                                                                                                    
                                                                                                    
                                                                                                    
                           
<?xpacket end="w"?></metadata>
<defs>
    <style>
      .cls-1 {
        fill: #fec48e;
        fill-rule: evenodd;
      }
    </style>
  </defs>
  <path class="cls-1" d="M1617.29,1711.99a57.3,57.3,0,0,0-5.2-7.75c17.09,54.73-16.43,115.99-76.44,130.6a312.164,312.164,0,0,1-80.37,9.58c14.29,4.24,31.38,6.57,51.71,6.57,92.61,0,118-48.42,118-104.94C1624.99,1732.52,1622.92,1722.12,1617.29,1711.99Zm-81.64,122.85c60.01-14.61,93.53-75.87,76.44-130.6-17.6-22.22-51.3-33.22-76.26-38.02-5.01-.96-19.56-2.22-28.84-2.22s-23.83,1.26-28.83,2.22c-27.71,5.33-66.2,18.29-81.47,45.77-5.63,10.13-7.69,20.53-7.69,34.06,0,44.11,15.46,83.29,66.28,98.37A312.164,312.164,0,0,0,1535.65,1834.84Z" transform="translate(-1389 -1664)"/>
</svg>
