<svg xmlns="http://www.w3.org/2000/svg" width="274" height="152" viewBox="0 0 274 152">
  <metadata><?xpacket begin="﻿" id="W5M0MpCehiHzreSzNTczkc9d"?>
<x:xmpmeta xmlns:x="adobe:ns:meta/" x:xmptk="Adobe XMP Core 5.6-c140 79.160451, 2017/05/06-01:08:21        ">
   <rdf:RDF xmlns:rdf="http://www.w3.org/1999/02/22-rdf-syntax-ns#">
      <rdf:Description rdf:about=""/>
   </rdf:RDF>
</x:xmpmeta>
                                                                                                    
                                                                                                    
                                                                                                    
                                                                                                    
                                                                                                    
                                                                                                    
                                                                                                    
                                                                                                    
                                                                                                    
                                                                                                    
                                                                                                    
                                                                                                    
                                                                                                    
                                                                                                    
                                                                                                    
                                                                                                    
                                                                                                    
                                                                                                    
                                                                                                    
                                                                                                    
                           
<?xpacket end="w"?></metadata>
<defs>
    <style>
      .cls-1 {
        fill: #fff;
        fill-rule: evenodd;
      }
    </style>
  </defs>
  <path id="gen-2" class="cls-1" d="M1507,1561.02a37.981,37.981,0,0,1-8.82-9.27,37.424,37.424,0,0,1-13.39,11.67c-1.95-9.37-6.78-19.21-15.18-22.7a27.381,27.381,0,0,1,2.9,12.04,21.172,21.172,0,0,1-2.59,10.4,19.575,19.575,0,0,0-17.07-9.19,18.555,18.555,0,0,0-8.25,1.72c5.57,3.24,9.34,9.63,9.34,14.86,0,5.1-3.13,9.63-7.25,13.21-0.71-3.54-3.1-6.28-6.37-6.28-11.75,0-17.78,12.98-24.44,22.92a53.454,53.454,0,0,0-3.8,6.6,50.884,50.884,0,0,1-3.96-20.06,60.441,60.441,0,0,1,1.71-14.14,41.609,41.609,0,0,0-20.1,27.34,64.028,64.028,0,0,1-3.98-20.8,37.759,37.759,0,0,1,3.87-17.43,47.355,47.355,0,0,0-19.62,5.21,59.6,59.6,0,0,1,14.46-19.35c10.27-9.19,22.34-15.5,34.96-19.93,6.91-2.42,12.3-10.47,12.3-18.77a17.7,17.7,0,0,0-2.33-8.89c5.5,2.35,11.07,5.26,13.27,11.14a50.905,50.905,0,0,0,1.34-11.54c0-8.11-2.05-16.21-7.17-21.9a31.315,31.315,0,0,1,19.5,7.66c3.74-12.64,11.3-24,21.71-30.55a44.3,44.3,0,0,0-5.07,20.28,59.584,59.584,0,0,1-1.73,15.82,33.256,33.256,0,0,0,9.95-11.7,17.313,17.313,0,0,0,11,10.27,36.131,36.131,0,0,1,14.81-12.8,36.131,36.131,0,0,1,14.81,12.8,17.336,17.336,0,0,0,11-10.27,33.256,33.256,0,0,0,9.95,11.7,59.584,59.584,0,0,1-1.73-15.82,44.3,44.3,0,0,0-5.07-20.28c10.41,6.55,17.97,17.91,21.71,30.55a31.315,31.315,0,0,1,19.5-7.66c-5.12,5.69-7.18,13.79-7.18,21.9a50.907,50.907,0,0,0,1.35,11.54c2.2-5.88,7.77-8.79,13.27-11.14a17.7,17.7,0,0,0-2.33,8.89c0,8.3,5.39,16.35,12.3,18.77,12.62,4.43,24.68,10.74,34.96,19.93a59.6,59.6,0,0,1,14.46,19.35,47.355,47.355,0,0,0-19.62-5.21,37.759,37.759,0,0,1,3.87,17.43,64.028,64.028,0,0,1-3.98,20.8,41.609,41.609,0,0,0-20.1-27.34,60.441,60.441,0,0,1,1.71,14.14,50.884,50.884,0,0,1-3.96,20.06,53.454,53.454,0,0,0-3.8-6.6c-6.66-9.94-12.69-22.92-24.44-22.92-3.27,0-5.66,2.74-6.37,6.28-4.12-3.58-7.25-8.11-7.25-13.21,0-5.23,3.77-11.62,9.34-14.86a18.555,18.555,0,0,0-8.25-1.72,19.562,19.562,0,0,0-17.07,9.19,21.172,21.172,0,0,1-2.59-10.4,27.381,27.381,0,0,1,2.9-12.04c-8.4,3.49-13.23,13.33-15.18,22.7a37.424,37.424,0,0,1-13.39-11.67A37.981,37.981,0,0,1,1507,1561.02Z" transform="translate(-1370 -1455)"/>
</svg>
