<svg xmlns="http://www.w3.org/2000/svg" width="217" height="302" viewBox="0 0 217 302">

  <path class="cls-1" d="M1423.48,1712.12l20.86,68.29s41.36,22.27,62.16,32.59c20.8-10.32,62.17-32.59,62.17-32.59l20.85-68.29-83.02-112.19ZM1560.34,1511H1452.66l-54.67,117.63,25.49,83.49,83.02-112.19,83.02,112.19,25.49-83.49Z" transform="translate(-1398 -1511)"/>

   <path id="gen-1" class="cls-1" d="M1566.91,1511.01H1392.64c-0.53,50.74-4.64,101.86-4.64,152.87,0,29.37.84,53.8,2.7,74.12,25.74-35.67,73.54-46.98,116.3-45.68,42.76-1.3,90.56,10.01,116.3,45.68,1.86-20.32,2.7-44.75,2.7-74.12,0-51.01-4.12-102.13-4.64-152.87h-54.45Z" transform="translate(-1388 -1511)"/>

   <path class="cls-1" d="M1578.76,1622.58c0.53-.26,1.03-0.53,1.53-0.82,0.73-19.1,4.43-38.01,12.16-54.11-23.05-11.19-41.26-31.82-45.9-56.5-13.38-.31-26.76-2.06-40.05-4.15-13.29,2.09-26.67,3.84-40.05,4.15-4.64,24.68-22.85,45.31-45.9,56.5,7.49,15.6,11.2,33.83,12.08,52.32C1469.48,1654.09,1535.73,1645.09,1578.76,1622.58Zm1.39,6.27c0-2.36.05-4.73,0.14-7.09-0.5.29-1,.56-1.53,0.82-43.03,22.51-109.28,31.51-146.13-2.61,0.14,2.96.22,5.92,0.22,8.88,0,72.49-26.85,78.53-26.85,109.81,0,43.81,51.55,81.34,95.84,81.34,1.56,0,3.11-.06,4.66-0.16,1.55,0.1,3.1.16,4.66,0.16,44.29,0,95.84-37.53,95.84-81.34C1607,1707.38,1580.15,1701.34,1580.15,1628.85Z" transform="translate(-1406 -1507)"/>
</svg>
