<svg xmlns="http://www.w3.org/2000/svg" width="124.03" height="85" viewBox="0 0 124.03 85">
  <metadata><?xpacket begin="﻿" id="W5M0MpCehiHzreSzNTczkc9d"?>
<x:xmpmeta xmlns:x="adobe:ns:meta/" x:xmptk="Adobe XMP Core 5.6-c140 79.160451, 2017/05/06-01:08:21        ">
   <rdf:RDF xmlns:rdf="http://www.w3.org/1999/02/22-rdf-syntax-ns#">
      <rdf:Description rdf:about=""/>
   </rdf:RDF>
</x:xmpmeta>
                                                                                                    
                                                                                                    
                                                                                                    
                                                                                                    
                                                                                                    
                                                                                                    
                                                                                                    
                                                                                                    
                                                                                                    
                                                                                                    
                                                                                                    
                                                                                                    
                                                                                                    
                                                                                                    
                                                                                                    
                                                                                                    
                                                                                                    
                                                                                                    
                                                                                                    
                                                                                                    
                           
<?xpacket end="w"?></metadata>
<defs>
    <style>
      .cls-1 {
        fill: #f3e8b0;
        fill-rule: evenodd;
      }
    </style>
  </defs>
  <path id="gen-1" class="cls-1" d="M1506.45,1596a97.459,97.459,0,0,1-22.2-3.36c1.1,0.3-18.56-8.83-14.42-1.75-1.78-3.06-4.54-6.11-4.99-10.46-4.64,1.47-7.99,5.45-9.79,10.28-3.86-5.14-3.16-11.65-2.36-17.59-4.4,1.56-6.08,1.87-8.02,7.08-2.5-4.8,2.96-69.2.3-69.2h15.61q53.685,0,107.35,0c0.38,8.66-.76,17.21-1.31,25.83-0.57,8.95,2.24,19.82-.83,28.2-1.18-2.66-6.64-4.39-7.14-5.71,1.74,4.62,3.07,10.88,1.78,15.75-2.38-1.33-4.54-4.34-7.65-5.18,2.11,3.25,1.16,7.23,0,10.71-1.54-9.85-12.67,4.71-17.25,7.41C1526.73,1593.22,1516.62,1595.62,1506.45,1596Z" transform="translate(-1444 -1511)"/>
</svg>
